<svg width="34" height="34" viewBox="0 0 34 34" fill="none" xmlns="http://www.w3.org/2000/svg">
<g id="logos:facebook" clip-path="url(#clip0_2613_6453)" filter="url(#filter0_d_2613_6453)">
<path id="Vector" d="M32 16C32 7.71578 25.2842 1 17 1C8.71578 1 2 7.71566 2 16C2 23.4869 7.48531 29.6925 14.6562 30.8178V20.3359H10.8477V16H14.6562V12.6953C14.6562 8.93594 16.8957 6.85938 20.3219 6.85938C21.9631 6.85938 23.6797 7.15234 23.6797 7.15234V10.8438H21.7883C19.9248 10.8438 19.3438 12 19.3438 13.1863V16H23.5039L22.8389 20.3359H19.3438V30.8178C26.5147 29.6925 32 23.487 32 16Z" fill="#1877F2"/>
<path id="Vector_2" d="M22.8389 20.3359L23.5039 16H19.3438V13.1863C19.3438 11.9999 19.9249 10.8438 21.7883 10.8438H23.6797V7.15234C23.6797 7.15234 21.9631 6.85938 20.3219 6.85938C16.8957 6.85938 14.6562 8.93594 14.6562 12.6953V16H10.8477V20.3359H14.6562V30.8178C15.4316 30.9393 16.2152 31.0002 17 31C17.7848 31.0002 18.5684 30.9393 19.3438 30.8178V20.3359H22.8389Z" fill="#F8F8F8"/>
</g>
<defs>
<filter id="filter0_d_2613_6453" x="0" y="0" width="34" height="34" filterUnits="userSpaceOnUse" color-interpolation-filters="sRGB">
<feFlood flood-opacity="0" result="BackgroundImageFix"/>
<feColorMatrix in="SourceAlpha" type="matrix" values="0 0 0 0 0 0 0 0 0 0 0 0 0 0 0 0 0 0 127 0" result="hardAlpha"/>
<feOffset dy="1"/>
<feGaussianBlur stdDeviation="1"/>
<feComposite in2="hardAlpha" operator="out"/>
<feColorMatrix type="matrix" values="0 0 0 0 0.0196078 0 0 0 0 0.196078 0 0 0 0 0.513726 0 0 0 0.39 0"/>
<feBlend mode="normal" in2="BackgroundImageFix" result="effect1_dropShadow_2613_6453"/>
<feBlend mode="normal" in="SourceGraphic" in2="effect1_dropShadow_2613_6453" result="shape"/>
</filter>
<clipPath id="clip0_2613_6453">
<rect width="30" height="30" fill="white" transform="translate(2 1)"/>
</clipPath>
</defs>
</svg>
