<svg width="24" height="24" viewBox="0 0 24 24" fill="none" xmlns="http://www.w3.org/2000/svg">
<g id="logos:google-icon" clip-path="url(#clip0_1775_14065)">
<path id="Vector" d="M23.122 12.2907C23.122 11.3712 23.0457 10.7002 22.8804 10.0044H12.1348V14.1545H18.4422C18.3151 15.1858 17.6284 16.739 16.1024 17.7827L16.081 17.9216L19.4785 20.4934L19.7139 20.5164C21.8757 18.5655 23.122 15.6952 23.122 12.2907Z" fill="#4285F4"/>
<path id="Vector_2" d="M12.1344 23.2246C15.2246 23.2246 17.8188 22.2305 19.7136 20.5159L16.102 17.7822C15.1356 18.4408 13.8384 18.9005 12.1344 18.9005C9.10788 18.9005 6.53912 16.9497 5.62342 14.2534L5.4892 14.2646L1.95636 16.936L1.91016 17.0615C3.79221 20.7146 7.65811 23.2246 12.1344 23.2246Z" fill="#34A853"/>
<path id="Vector_3" d="M5.6235 14.2539C5.38189 13.5581 5.24206 12.8125 5.24206 12.0421C5.24206 11.2717 5.38189 10.5262 5.61079 9.83037L5.60439 9.68218L2.02727 6.96777L1.91023 7.02217C1.13454 8.5381 0.689453 10.2404 0.689453 12.0421C0.689453 13.8438 1.13454 15.5461 1.91023 17.062L5.6235 14.2539Z" fill="#FBBC05"/>
<path id="Vector_4" d="M12.1344 5.18294C14.2835 5.18294 15.7332 6.09 16.5598 6.848L19.7899 3.76646C17.8061 1.96476 15.2246 0.858887 12.1344 0.858887C7.65811 0.858887 3.79221 3.36882 1.91016 7.02189L5.61071 9.8301C6.53912 7.13377 9.10788 5.18294 12.1344 5.18294Z" fill="#EB4335"/>
</g>
<defs>
<clipPath id="clip0_1775_14065">
<rect width="22.443" height="22.443" fill="white" transform="translate(0.689453 0.858887)"/>
</clipPath>
</defs>
</svg>
