<svg xmlns="http://www.w3.org/2000/svg" width="32" height="22" viewBox="0 0 32 22" fill="none">
  <path d="M32 1.13793C32 0.509475 31.4627 0 30.8 0H6C5.33728 0 4.8 0.509475 4.8 1.13793C4.8 1.76639 5.33728 2.27586 6 2.27586H30.8C31.4627 2.27586 32 1.76639 32 1.13793ZM32 20.8621C32 20.2336 31.4627 19.7241 30.8 19.7241H14C13.3373 19.7241 12.8 20.2336 12.8 20.8621C12.8 21.4905 13.3373 22 14 22H30.8C31.4627 22 32 21.4905 32 20.8621ZM30.8 9.86207C31.4627 9.86207 32 10.3716 32 11C32 11.6284 31.4627 12.1379 30.8 12.1379H1.2C0.537279 12.1379 0 11.6284 0 11C0 10.3716 0.537279 9.86207 1.2 9.86207H30.8Z" fill="#1A1A1A"/>
</svg>