<svg width="15" height="15" viewBox="0 0 15 15" fill="none" xmlns="http://www.w3.org/2000/svg">
<path id="Vector" fill-rule="evenodd" clip-rule="evenodd" d="M5.35714 0C4.85986 0 4.38295 0.197544 4.03132 0.549175C3.67969 0.900805 3.48214 1.37772 3.48214 1.875V3.21429H2.14286C1.57454 3.21429 1.02949 3.44005 0.627628 3.84191C0.225765 4.24378 0 4.78882 0 5.35714V12.8571C0 13.4255 0.225765 13.9705 0.627628 14.3724C1.02949 14.7742 1.57454 15 2.14286 15H12.8571C13.4255 15 13.9705 14.7742 14.3724 14.3724C14.7742 13.9705 15 13.4255 15 12.8571V5.35714C15 4.78882 14.7742 4.24378 14.3724 3.84191C13.9705 3.44005 13.4255 3.21429 12.8571 3.21429H11.5179V1.875C11.5179 1.37772 11.3203 0.900805 10.9687 0.549175C10.6171 0.197544 10.1401 0 9.64286 0H5.35714ZM9.91071 3.21429V1.875C9.91071 1.80396 9.88249 1.73583 9.83226 1.6856C9.78203 1.63536 9.7139 1.60714 9.64286 1.60714H5.35714C5.2861 1.60714 5.21797 1.63536 5.16774 1.6856C5.11751 1.73583 5.08929 1.80396 5.08929 1.875V3.21429H9.91071ZM2.14286 4.82143H12.8571C12.9992 4.82143 13.1355 4.87787 13.236 4.97834C13.3364 5.0788 13.3929 5.21506 13.3929 5.35714V6.42857H1.60714V5.35714C1.60714 5.21506 1.66358 5.0788 1.76405 4.97834C1.86452 4.87787 2.00078 4.82143 2.14286 4.82143ZM1.60714 8.03571V12.8571C1.60714 12.9992 1.66358 13.1355 1.76405 13.236C1.86452 13.3364 2.00078 13.3929 2.14286 13.3929H12.8571C12.9992 13.3929 13.1355 13.3364 13.236 13.236C13.3364 13.1355 13.3929 12.9992 13.3929 12.8571V8.03571H8.57143V9.64286H6.42857V8.03571H1.60714Z" fill="#B3B3B3"/>
</svg>
