<svg width="64" height="64" viewBox="0 0 64 64" fill="none" xmlns="http://www.w3.org/2000/svg">
<g id="Frame 2609256" filter="url(#filter0_d_4151_936)">
<rect x="17" y="12" width="30" height="30" rx="4" fill="#F6F7FB"/>
<g id="Group 5">
<path id="Vector" d="M40.4444 27.8988V25.7586H38.6667V28.2414C38.6667 28.4609 38.7604 28.6713 38.9271 28.8265L41.3333 31.0668V32.3793H21.7778V31.0668L24.184 28.8265C24.3507 28.6713 24.4444 28.4609 24.4444 28.2414V24.931C24.442 23.7681 24.7692 22.6252 25.393 21.6176C26.0168 20.6101 26.9151 19.7737 27.9972 19.1929C29.0794 18.6121 30.307 18.3074 31.556 18.3097C32.8051 18.3119 34.0314 18.621 35.1111 19.2058V17.3561C34.265 17.0073 33.365 16.785 32.4444 16.6974V15H30.6667V16.6966C28.4752 16.9042 26.4442 17.8611 24.9666 19.3821C23.4889 20.903 22.6694 22.8801 22.6667 24.931V27.8988L20.2604 30.139C20.0937 30.2942 20.0001 30.5047 20 30.7241V33.2069C20 33.4264 20.0937 33.6369 20.2603 33.7921C20.427 33.9473 20.6531 34.0345 20.8889 34.0345H27.1111V34.8621C27.1111 35.9595 27.5794 37.012 28.4129 37.788C29.2464 38.564 30.3768 39 31.5556 39C32.7343 39 33.8648 38.564 34.6983 37.788C35.5317 37.012 36 35.9595 36 34.8621V34.0345H42.2222C42.458 34.0345 42.6841 33.9473 42.8508 33.7921C43.0175 33.6369 43.1111 33.4264 43.1111 33.2069V30.7241C43.1111 30.5047 43.0174 30.2942 42.8507 30.139L40.4444 27.8988ZM34.2222 34.8621C34.2222 35.5205 33.9413 36.152 33.4412 36.6176C32.9411 37.0833 32.2628 37.3448 31.5556 37.3448C30.8483 37.3448 30.17 37.0833 29.6699 36.6176C29.1698 36.152 28.8889 35.5205 28.8889 34.8621V34.0345H34.2222V34.8621Z" fill="#053283"/>
<path id="Vector_2" d="M40.4442 24.1031C42.4079 24.1031 43.9998 22.621 43.9998 20.7928C43.9998 18.9645 42.4079 17.4824 40.4442 17.4824C38.4805 17.4824 36.8887 18.9645 36.8887 20.7928C36.8887 22.621 38.4805 24.1031 40.4442 24.1031Z" fill="#FF0000"/>
</g>
</g>
<defs>
<filter id="filter0_d_4151_936" x="0" y="0" width="64" height="64" filterUnits="userSpaceOnUse" color-interpolation-filters="sRGB">
<feFlood flood-opacity="0" result="BackgroundImageFix"/>
<feColorMatrix in="SourceAlpha" type="matrix" values="0 0 0 0 0 0 0 0 0 0 0 0 0 0 0 0 0 0 127 0" result="hardAlpha"/>
<feOffset dy="5"/>
<feGaussianBlur stdDeviation="8.5"/>
<feComposite in2="hardAlpha" operator="out"/>
<feColorMatrix type="matrix" values="0 0 0 0 0.6 0 0 0 0 0.742857 0 0 0 0 1 0 0 0 0.47 0"/>
<feBlend mode="normal" in2="BackgroundImageFix" result="effect1_dropShadow_4151_936"/>
<feBlend mode="normal" in="SourceGraphic" in2="effect1_dropShadow_4151_936" result="shape"/>
</filter>
</defs>
</svg>
