<svg width="15" height="15" viewBox="0 0 15 15" fill="none" xmlns="http://www.w3.org/2000/svg">
<path id="Vector" d="M12 3.33333H14.25C14.4489 3.33333 14.6397 3.42113 14.7803 3.57741C14.921 3.73369 15 3.94565 15 4.16667V14.1667C15 14.3877 14.921 14.5996 14.7803 14.7559C14.6397 14.9122 14.4489 15 14.25 15H0.75C0.551088 15 0.360322 14.9122 0.21967 14.7559C0.0790176 14.5996 0 14.3877 0 14.1667V0.833333C0 0.61232 0.0790176 0.400358 0.21967 0.244078C0.360322 0.0877973 0.551088 0 0.75 0H12V3.33333ZM1.5 5V13.3333H13.5V5H1.5ZM1.5 1.66667V3.33333H10.5V1.66667H1.5ZM9.75 8.33333H12V10H9.75V8.33333Z" fill="#B3B3B3"/>
</svg>
