<svg width="34" height="34" viewBox="0 0 34 34" fill="none" xmlns="http://www.w3.org/2000/svg">
<g id="Instagram icon" clip-path="url(#clip0_2613_6465)" filter="url(#filter0_d_2613_6465)">
<g id="Group">
<path id="Vector" d="M24.9688 1H9.03125C5.148 1 2 4.148 2 8.03125V23.9688C2 27.852 5.148 31 9.03125 31H24.9688C28.852 31 32 27.852 32 23.9688V8.03125C32 4.148 28.852 1 24.9688 1Z" fill="url(#paint0_radial_2613_6465)"/>
<path id="Vector_2" d="M24.9688 1H9.03125C5.148 1 2 4.148 2 8.03125V23.9688C2 27.852 5.148 31 9.03125 31H24.9688C28.852 31 32 27.852 32 23.9688V8.03125C32 4.148 28.852 1 24.9688 1Z" fill="url(#paint1_radial_2613_6465)"/>
<path id="Vector_3" d="M17.0011 4.28125C13.8185 4.28125 13.419 4.2952 12.1691 4.35203C10.9215 4.40922 10.0699 4.60668 9.3248 4.89648C8.55395 5.19578 7.90016 5.59621 7.24883 6.24777C6.59691 6.89922 6.19648 7.55301 5.89625 8.32352C5.60563 9.06883 5.40793 9.92078 5.3518 11.1678C5.2959 12.4178 5.28125 12.8174 5.28125 16.0001C5.28125 19.1828 5.29531 19.581 5.35203 20.8309C5.40945 22.0785 5.60691 22.9301 5.89648 23.6752C6.19602 24.4461 6.59645 25.0998 7.24801 25.7512C7.89922 26.4031 8.55301 26.8045 9.32328 27.1038C10.0689 27.3936 10.9207 27.591 12.168 27.6482C13.418 27.705 13.8172 27.719 16.9996 27.719C20.1826 27.719 20.5808 27.705 21.8307 27.6482C23.0783 27.591 23.9308 27.3936 24.6765 27.1038C25.447 26.8045 26.0998 26.4031 26.7509 25.7512C27.4029 25.0998 27.8032 24.4461 28.1035 23.6755C28.3916 22.9301 28.5894 22.0783 28.648 20.8312C28.7041 19.5812 28.7188 19.1828 28.7188 16.0001C28.7188 12.8174 28.7041 12.418 28.648 11.168C28.5894 9.92043 28.3916 9.06895 28.1035 8.32387C27.8032 7.55301 27.4029 6.89922 26.7509 6.24777C26.0991 5.59598 25.4472 5.19555 24.6758 4.8966C23.9287 4.60668 23.0766 4.4091 21.8291 4.35203C20.579 4.2952 20.1811 4.28125 16.9974 4.28125H17.0011ZM15.9498 6.39309C16.2618 6.39262 16.61 6.39309 17.0011 6.39309C20.1301 6.39309 20.5009 6.40434 21.7365 6.46047C22.8791 6.51273 23.4992 6.70363 23.9123 6.86406C24.4592 7.07641 24.8491 7.33035 25.259 7.74063C25.6692 8.15078 25.923 8.54137 26.1359 9.08828C26.2964 9.50078 26.4875 10.1209 26.5395 11.2635C26.5957 12.4989 26.6079 12.8699 26.6079 15.9974C26.6079 19.1249 26.5957 19.4961 26.5395 20.7313C26.4873 21.8739 26.2964 22.4941 26.1359 22.9067C25.9236 23.4536 25.6692 23.843 25.259 24.2529C24.8489 24.6631 24.4595 24.9169 23.9123 25.1294C23.4997 25.2905 22.8791 25.4809 21.7365 25.5332C20.5011 25.5893 20.1301 25.6015 17.0011 25.6015C13.8719 25.6015 13.501 25.5893 12.2657 25.5332C11.1232 25.4805 10.503 25.2896 10.0896 25.1291C9.54277 24.9167 9.15207 24.6629 8.74191 24.2527C8.33176 23.8425 8.07793 23.4529 7.865 22.9057C7.70457 22.4931 7.51344 21.873 7.46141 20.7304C7.40527 19.495 7.39402 19.124 7.39402 15.9945C7.39402 12.8651 7.40527 12.496 7.46141 11.2606C7.51367 10.118 7.70457 9.49785 7.865 9.08477C8.07746 8.53785 8.33176 8.14727 8.74203 7.73711C9.15219 7.32695 9.54277 7.07301 10.0897 6.8602C10.5028 6.69906 11.1232 6.50863 12.2657 6.45613C13.3468 6.40727 13.7657 6.39262 15.9498 6.39016V6.39309ZM23.2565 8.33887C22.4802 8.33887 21.8503 8.96816 21.8503 9.74465C21.8503 10.521 22.4802 11.1509 23.2565 11.1509C24.0329 11.1509 24.6628 10.521 24.6628 9.74465C24.6628 8.96828 24.0329 8.3384 23.2565 8.3384V8.33887ZM17.0011 9.98195C13.6776 9.98195 10.983 12.6766 10.983 16.0001C10.983 19.3237 13.6776 22.017 17.0011 22.017C20.3246 22.017 23.0183 19.3237 23.0183 16.0001C23.0183 12.6767 20.3244 9.98195 17.0008 9.98195H17.0011ZM17.0011 12.0938C19.1584 12.0938 20.9074 13.8426 20.9074 16.0001C20.9074 18.1574 19.1584 19.9064 17.0011 19.9064C14.8436 19.9064 13.0948 18.1574 13.0948 16.0001C13.0948 13.8426 14.8436 12.0938 17.0011 12.0938Z" fill="white"/>
</g>
</g>
<defs>
<filter id="filter0_d_2613_6465" x="0" y="0" width="34" height="34" filterUnits="userSpaceOnUse" color-interpolation-filters="sRGB">
<feFlood flood-opacity="0" result="BackgroundImageFix"/>
<feColorMatrix in="SourceAlpha" type="matrix" values="0 0 0 0 0 0 0 0 0 0 0 0 0 0 0 0 0 0 127 0" result="hardAlpha"/>
<feOffset dy="1"/>
<feGaussianBlur stdDeviation="1"/>
<feComposite in2="hardAlpha" operator="out"/>
<feColorMatrix type="matrix" values="0 0 0 0 0.0196078 0 0 0 0 0.196078 0 0 0 0 0.513726 0 0 0 0.39 0"/>
<feBlend mode="normal" in2="BackgroundImageFix" result="effect1_dropShadow_2613_6465"/>
<feBlend mode="normal" in="SourceGraphic" in2="effect1_dropShadow_2613_6465" result="shape"/>
</filter>
<radialGradient id="paint0_radial_2613_6465" cx="0" cy="0" r="1" gradientUnits="userSpaceOnUse" gradientTransform="translate(9.96875 33.3106) rotate(-90) scale(29.7322 27.6533)">
<stop stop-color="#FFDD55"/>
<stop offset="0.1" stop-color="#FFDD55"/>
<stop offset="0.5" stop-color="#FF543E"/>
<stop offset="1" stop-color="#C837AB"/>
</radialGradient>
<radialGradient id="paint1_radial_2613_6465" cx="0" cy="0" r="1" gradientUnits="userSpaceOnUse" gradientTransform="translate(-3.02512 3.16105) rotate(78.681) scale(13.2905 54.7837)">
<stop stop-color="#3771C8"/>
<stop offset="0.128" stop-color="#3771C8"/>
<stop offset="1" stop-color="#6600FF" stop-opacity="0"/>
</radialGradient>
<clipPath id="clip0_2613_6465">
<rect width="30" height="30" fill="white" transform="translate(2 1)"/>
</clipPath>
</defs>
</svg>
