<svg width="34" height="34" viewBox="0 0 34 34" fill="none" xmlns="http://www.w3.org/2000/svg">
<g id="skill-icons:linkedin" clip-path="url(#clip0_2613_6460)" filter="url(#filter0_d_2613_6460)">
<g id="Group">
<path id="Vector" d="M24.9688 1H9.03125C5.148 1 2 4.148 2 8.03125V23.9688C2 27.852 5.148 31 9.03125 31H24.9688C28.852 31 32 27.852 32 23.9688V8.03125C32 4.148 28.852 1 24.9688 1Z" fill="white"/>
<path id="Vector_2" d="M24.9688 1H9.03125C5.148 1 2 4.148 2 8.03125V23.9688C2 27.852 5.148 31 9.03125 31H24.9688C28.852 31 32 27.852 32 23.9688V8.03125C32 4.148 28.852 1 24.9688 1Z" fill="#0A66C2"/>
<path id="Vector_3" d="M23.6463 26.51H27.0764C27.2007 26.51 27.3199 26.4606 27.4078 26.3727C27.4957 26.2848 27.5451 26.1656 27.5451 26.0413L27.5469 18.7942C27.5469 15.0064 26.7307 12.0948 22.3041 12.0948C20.6214 12.0323 19.0346 12.8997 18.1783 14.3481C18.1741 14.3552 18.1678 14.3606 18.1602 14.3637C18.1526 14.3668 18.1442 14.3673 18.1363 14.3651C18.1284 14.363 18.1214 14.3583 18.1164 14.3519C18.1114 14.3454 18.1087 14.3374 18.1086 14.3293V12.9133C18.1086 12.789 18.0592 12.6697 17.9713 12.5818C17.8834 12.4939 17.7642 12.4445 17.6398 12.4445H14.3847C14.2604 12.4445 14.1412 12.4939 14.0533 12.5818C13.9654 12.6697 13.916 12.789 13.916 12.9133V26.0406C13.916 26.1649 13.9654 26.2842 14.0533 26.3721C14.1412 26.46 14.2604 26.5094 14.3847 26.5094H17.8146C17.9389 26.5094 18.0581 26.46 18.146 26.3721C18.2339 26.2842 18.2833 26.1649 18.2833 26.0406V19.5516C18.2833 17.7168 18.6314 15.9399 20.9061 15.9399C23.1485 15.9399 23.1775 18.0394 23.1775 19.6704V26.0412C23.1775 26.1655 23.2269 26.2848 23.3148 26.3727C23.4027 26.4606 23.522 26.51 23.6463 26.51ZM6.45312 7.98754C6.45312 9.37797 7.5977 10.522 8.98813 10.522C10.3782 10.5218 11.5221 9.37715 11.5221 7.98707C11.5218 6.59699 10.3779 5.45312 8.98766 5.45312C7.59711 5.45312 6.45312 6.59723 6.45312 7.98754ZM7.26863 26.51H10.703C10.8274 26.51 10.9466 26.4606 11.0345 26.3727C11.1224 26.2848 11.1718 26.1655 11.1718 26.0412V12.9133C11.1718 12.789 11.1224 12.6697 11.0345 12.5818C10.9466 12.4939 10.8274 12.4445 10.703 12.4445H7.26863C7.14431 12.4445 7.02508 12.4939 6.93718 12.5818C6.84927 12.6697 6.79988 12.789 6.79988 12.9133V26.0412C6.79988 26.1655 6.84927 26.2848 6.93718 26.3727C7.02508 26.4606 7.14431 26.51 7.26863 26.51Z" fill="white"/>
</g>
</g>
<defs>
<filter id="filter0_d_2613_6460" x="0" y="0" width="34" height="34" filterUnits="userSpaceOnUse" color-interpolation-filters="sRGB">
<feFlood flood-opacity="0" result="BackgroundImageFix"/>
<feColorMatrix in="SourceAlpha" type="matrix" values="0 0 0 0 0 0 0 0 0 0 0 0 0 0 0 0 0 0 127 0" result="hardAlpha"/>
<feOffset dy="1"/>
<feGaussianBlur stdDeviation="1"/>
<feComposite in2="hardAlpha" operator="out"/>
<feColorMatrix type="matrix" values="0 0 0 0 0.0196078 0 0 0 0 0.196078 0 0 0 0 0.513726 0 0 0 0.39 0"/>
<feBlend mode="normal" in2="BackgroundImageFix" result="effect1_dropShadow_2613_6460"/>
<feBlend mode="normal" in="SourceGraphic" in2="effect1_dropShadow_2613_6460" result="shape"/>
</filter>
<clipPath id="clip0_2613_6460">
<rect width="30" height="30" fill="white" transform="translate(2 1)"/>
</clipPath>
</defs>
</svg>
