<svg width="34" height="34" viewBox="0 0 34 34" fill="none" xmlns="http://www.w3.org/2000/svg">
<g id="Group" filter="url(#filter0_d_2613_6456)">
<path id="Vector" d="M24.9688 1H9.03125C5.148 1 2 4.148 2 8.03125V23.9688C2 27.852 5.148 31 9.03125 31H24.9688C28.852 31 32 27.852 32 23.9688V8.03125C32 4.148 28.852 1 24.9688 1Z" fill="white"/>
<path id="Vector_2" d="M24.9688 1H9.03125C5.148 1 2 4.148 2 8.03125V23.9688C2 27.852 5.148 31 9.03125 31H24.9688C28.852 31 32 27.852 32 23.9688V8.03125C32 4.148 28.852 1 24.9688 1Z" fill="#1D9BF0"/>
<path id="Vector_3" d="M25.3873 11.7122C25.4002 11.8982 25.4002 12.0842 25.4002 12.2719C25.4002 17.9903 21.047 24.5854 13.0868 24.5854V24.5819C10.7352 24.5853 8.43231 23.9118 6.45312 22.6418C6.79508 22.683 7.13867 22.7035 7.4832 22.7043C9.43222 22.7058 11.3252 22.0521 12.8579 20.8482C11.9548 20.8311 11.0797 20.5322 10.3548 19.9934C9.62993 19.4546 9.09154 18.7027 8.81492 17.8429C9.46329 17.9679 10.1317 17.9424 10.7687 17.7684C8.74977 17.3604 7.29723 15.5866 7.29723 13.5264V13.4716C7.89909 13.8068 8.57267 13.9925 9.26129 14.0132C7.3598 12.7423 6.77363 10.2126 7.92184 8.23468C9.00832 9.57167 10.3639 10.6652 11.9005 11.4441C13.4372 12.223 15.1205 12.67 16.8411 12.756C16.6695 12.0175 16.6949 11.247 16.9146 10.5214C17.1343 9.79576 17.5406 9.14056 18.093 8.62128C19.8361 6.98277 22.5774 7.06679 24.2159 8.8089C25.1851 8.61756 26.1145 8.26227 26.9641 7.75832C26.641 8.76034 25.965 9.6109 25.0617 10.1518C25.9196 10.0507 26.7574 9.82104 27.5469 9.47054C26.9661 10.3403 26.2348 11.0993 25.3873 11.7122Z" fill="white"/>
</g>
<defs>
<filter id="filter0_d_2613_6456" x="0" y="0" width="34" height="34" filterUnits="userSpaceOnUse" color-interpolation-filters="sRGB">
<feFlood flood-opacity="0" result="BackgroundImageFix"/>
<feColorMatrix in="SourceAlpha" type="matrix" values="0 0 0 0 0 0 0 0 0 0 0 0 0 0 0 0 0 0 127 0" result="hardAlpha"/>
<feOffset dy="1"/>
<feGaussianBlur stdDeviation="1"/>
<feComposite in2="hardAlpha" operator="out"/>
<feColorMatrix type="matrix" values="0 0 0 0 0.0196078 0 0 0 0 0.196078 0 0 0 0 0.513726 0 0 0 0.39 0"/>
<feBlend mode="normal" in2="BackgroundImageFix" result="effect1_dropShadow_2613_6456"/>
<feBlend mode="normal" in="SourceGraphic" in2="effect1_dropShadow_2613_6456" result="shape"/>
</filter>
</defs>
</svg>
