<svg width="17" height="17" viewBox="0 0 17 17" fill="none" xmlns="http://www.w3.org/2000/svg">
<g id="Group">
<path id="Vector" d="M1 14.125C1 13.1304 1.39509 12.1766 2.09835 11.4733C2.80161 10.7701 3.75544 10.375 4.75 10.375H12.25C13.2446 10.375 14.1984 10.7701 14.9016 11.4733C15.6049 12.1766 16 13.1304 16 14.125C16 14.6223 15.8025 15.0992 15.4508 15.4508C15.0992 15.8025 14.6223 16 14.125 16H2.875C2.37772 16 1.90081 15.8025 1.54917 15.4508C1.19754 15.0992 1 14.6223 1 14.125Z" stroke="#B3B3B3" stroke-width="2" stroke-linejoin="round"/>
<path id="Vector_2" d="M8.5 6.625C10.0533 6.625 11.3125 5.3658 11.3125 3.8125C11.3125 2.2592 10.0533 1 8.5 1C6.9467 1 5.6875 2.2592 5.6875 3.8125C5.6875 5.3658 6.9467 6.625 8.5 6.625Z" stroke="#B3B3B3" stroke-width="2"/>
</g>
</svg>
