<svg width="30" height="30" viewBox="0 0 30 30" fill="none" xmlns="http://www.w3.org/2000/svg">
<g id="Frame 427319494">
<path id="Vector" d="M13.383 7.48874C13.5317 6.76921 13.4177 7.11159 12.4588 5.59762C11.5966 4.23879 11.775 2.30754 10.7542 1.34726C10.1273 0.758794 9.34187 0.0981028 6.41569 1.68697C5.39982 2.23799 3.37057 4.05422 1.07125 4.8861C-0.779609 5.55482 0.246167 6.36263 0.640124 6.51242C2.04251 7.04472 3.89832 5.89453 3.89832 5.89453C3.89832 5.89453 1.23725 7.77228 2.80069 8.21631C4.06929 8.57741 5.66741 6.93237 5.66741 6.93237C5.66741 6.93237 4.1015 8.72453 5.38248 9.18461C6.26207 9.50024 8.00886 7.69738 8.00886 7.69738C8.00886 7.69738 6.78734 9.52966 7.37704 9.91752C8.27397 10.506 9.74326 8.98934 9.74326 8.98934C9.74326 8.98934 8.57626 10.8296 9.18577 11.1292C10.0976 11.5786 11.4504 10.3161 11.4504 10.3161C11.4504 10.3161 13.1154 8.77535 13.383 7.48874Z" fill="#E0E0E0"/>
<path id="Vector_2" d="M8.22993 1.56055C8.22993 1.56055 6.63428 2.57164 6.05202 3.3848C5.97521 3.4918 5.49701 4.00804 5.91822 4.30495C6.02476 4.37985 6.34191 4.3317 6.53021 4.20866C7.38751 3.64694 8.90387 2.31486 9.06988 2.3844C9.23588 2.45395 7.71456 3.53459 7.22398 4.8426C7.04063 5.33478 7.39742 5.68786 8.32656 5.09671C9.33747 4.45475 10.2071 3.32328 10.3533 3.32863C10.3533 3.32863 9.94699 4.09364 9.42667 4.69816C8.89644 5.31605 8.5223 5.94464 8.91378 6.14258C9.40685 6.39402 10.4723 5.71193 10.4723 5.71193C10.4723 5.71193 9.79337 6.59999 8.91378 6.8006C8.60406 6.87282 8.36125 6.82735 8.21259 6.64546C7.98711 6.36727 8.07383 5.93929 8.07383 5.93929C7.60554 6.13991 6.79781 6.46624 6.31713 6.02757C5.943 5.68518 6.45341 4.68211 6.45341 4.68211C6.45341 4.68211 5.54904 5.22243 5.03367 5.05927C4.76608 4.97367 4.35726 4.55639 4.95439 3.67101C5.89592 2.28811 8.22993 1.56055 8.22993 1.56055ZM10.1378 11.289C11.171 9.83924 12.2042 8.39214 13.2374 6.94237L13.1482 6.52509C13.1036 6.37797 12.6973 6.35925 12.1348 6.70965C11.7582 6.94504 11.0669 7.7903 10.6234 7.32487C10.3162 7.00389 11.1982 5.85637 11.1982 5.85637C11.0768 5.85905 10.0981 6.56521 9.94203 7.27405C9.80824 7.87589 9.93708 8.58206 11.1958 7.89462C11.2329 7.87322 11.2726 7.84915 11.3097 7.82507C11.1512 8.09523 11.0075 8.37877 10.886 8.66765C10.5342 9.50221 10.3261 10.3956 10.1378 11.289Z" fill="#BDBDBD"/>
<path id="Vector_3" d="M19.5557 0.857422L19.573 0.870796L19.5557 0.857422Z" fill="url(#paint0_linear_3244_134006)"/>
<path id="Vector_4" d="M20.9781 16.8262C18.488 20.8545 16.3943 25.2921 11.6321 26.6509C11.5826 26.6643 11.5305 26.6483 11.4958 26.6081L3.71581 17.3397C3.48538 17.0642 3.59936 16.6282 3.92642 16.5132C7.12515 15.3791 9.12219 12.6775 10.9012 9.79664C13.3541 5.82982 15.4552 1.46445 20.0663 0.0333944C20.2422 -0.0388269 20.4478 0.00664569 20.5816 0.164463C21.6148 1.3949 29.4073 9.40343 29.4197 9.41948C29.4246 9.42216 22.8884 13.734 20.9781 16.8262Z" fill="#66BB6A"/>
<path id="Vector_5" d="M13.7873 18.667C13.6188 18.4851 13.4181 18.3942 13.1852 18.3969C12.9523 18.3995 12.6501 18.5012 12.2759 18.7018C11.768 18.9934 11.3269 19.1298 10.9578 19.1164C10.5886 19.1004 10.2566 18.9345 9.9642 18.6162C9.6644 18.2926 9.50583 17.9314 9.49096 17.5356C9.47362 17.1397 9.59998 16.7572 9.87005 16.3881L9.39681 15.8745C9.36342 15.8377 9.34473 15.7882 9.34473 15.7367C9.34473 15.6852 9.36342 15.6358 9.39681 15.599L9.55042 15.4331C9.6198 15.3582 9.73378 15.3582 9.80563 15.4331L10.2814 15.9494C10.6307 15.6632 10.9999 15.5455 11.3864 15.5936C11.7333 15.6391 12.0752 15.8237 12.4097 16.1553C12.4741 16.2195 12.4741 16.3319 12.4122 16.3988L12.1297 16.7037C12.0703 16.7679 11.9736 16.7679 11.9117 16.7064C11.6887 16.4977 11.4583 16.3774 11.2229 16.3506C10.9479 16.3185 10.705 16.4148 10.4969 16.6395C10.2789 16.8749 10.1674 17.1156 10.1649 17.359C10.1624 17.6051 10.2615 17.8378 10.4622 18.0545C10.6481 18.2578 10.8587 18.3514 11.0916 18.3407C11.3245 18.33 11.6243 18.223 11.9959 18.0197C12.3676 17.8164 12.6823 17.6907 12.9499 17.6399C13.215 17.5891 13.4578 17.6024 13.6758 17.6773C13.8939 17.7549 14.0995 17.8967 14.2928 18.1053C14.6 18.4397 14.7561 18.8088 14.7586 19.2127C14.7611 19.6166 14.6124 20.0178 14.3101 20.4164L14.7066 20.8444C14.7759 20.9193 14.7759 21.0423 14.7066 21.1199L14.5554 21.283C14.486 21.3579 14.3721 21.3579 14.3002 21.283L13.9038 20.8551C13.5321 21.1868 13.1431 21.3446 12.7392 21.3232C12.38 21.3044 12.0356 21.1386 11.7085 20.8256C11.6928 20.8103 11.6802 20.7916 11.6715 20.7708C11.6628 20.7499 11.6582 20.7274 11.658 20.7045C11.6578 20.6817 11.6619 20.659 11.6702 20.638C11.6785 20.6169 11.6907 20.5979 11.706 20.5822L11.9935 20.2746C12.0504 20.2131 12.1421 20.2078 12.2041 20.2639C12.4246 20.4699 12.6525 20.5742 12.8879 20.5796C13.158 20.5849 13.4157 20.4538 13.661 20.189C13.9013 19.9322 14.0326 19.6648 14.0549 19.3946C14.0723 19.1244 13.9855 18.881 13.7873 18.667Z" fill="white"/>
<path id="Vector_6" d="M14.4216 20.5466L13.9013 20.8595L9.87993 16.4032L9.74365 16.2534L10.2813 15.9512L14.3027 20.4182L14.4216 20.5466Z" fill="white"/>
<path id="Vector_7" opacity="0.5" d="M18.1905 13.9213C20.1638 13.9213 21.7634 12.1944 21.7634 10.0642C21.7634 7.93394 20.1638 6.20703 18.1905 6.20703C16.2173 6.20703 14.6177 7.93394 14.6177 10.0642C14.6177 12.1944 16.2173 13.9213 18.1905 13.9213Z" fill="#2E7D32"/>
<path id="Vector_8" d="M22.2238 18.8564C20.9477 20.9214 19.1093 24.8614 16.5771 27.0281C14.253 29.0182 11.3218 29.9998 11.3218 29.9998L3.25684 19.8033L3.59133 17.0054L11.5002 26.6108C11.5324 26.6482 11.582 26.667 11.629 26.6536C16.3937 25.2948 18.4874 20.8572 20.9775 16.8288C22.8878 13.7367 25.7446 10.4413 29.4215 9.4248C29.7139 9.77254 29.5851 12.6881 29.2654 12.8032C26.0072 13.9694 24.0077 15.9648 22.2238 18.8564Z" fill="#2E7D32"/>
<path id="Vector_9" d="M18.9263 20.2211L19.6745 23.2036C19.6745 23.2036 21.954 19.6032 22.3232 18.7312L21.4957 16.043C20.3906 17.5275 18.9263 20.2211 18.9263 20.2211Z" fill="#FFC06C"/>
<path id="Vector_10" d="M18.7325 2.43061C18.9233 2.72751 19.2578 3.03512 19.7954 3.21434C19.9862 3.27854 20.1869 3.31063 20.3876 3.31063C20.8138 3.31063 21.1706 3.16887 21.4109 3.0378C22.013 3.69046 22.7662 4.4849 23.4947 5.25526C24.2083 6.00957 24.9417 6.78528 25.5388 7.42992C25.3455 7.74823 25.1919 8.2297 25.2563 8.8797C25.2861 9.17928 25.4818 9.48421 25.6899 9.73298C24.3718 10.6478 21.842 12.6807 19.2479 16.265C18.7003 17.022 18.1651 17.8619 17.6497 18.6724C16.3663 20.6892 15.0407 22.7703 13.2766 24.0435C13.0684 23.677 12.6844 23.233 11.9981 23.0484C11.8321 23.003 11.6685 22.9816 11.5124 22.9816C11.0714 22.9816 10.7245 23.1581 10.4767 23.3667L6.73539 18.7232C7.05006 18.4584 7.34491 18.0063 7.37464 17.3082C7.38951 16.9818 7.22846 16.6849 7.0451 16.4603C8.86871 15.0025 10.7939 12.678 11.8296 11.0089C11.9807 10.7655 12.1368 10.5114 12.2979 10.2492C13.9183 7.60914 16.1136 4.04622 18.7325 2.43061ZM18.9282 1.80469C15.7766 3.48985 13.2667 7.8793 11.4802 10.7521C10.3107 12.6325 8.19724 15.0854 6.37612 16.4094C6.37612 16.4094 6.97325 16.8668 6.95343 17.2814C6.90387 18.3942 6.06641 18.5814 6.06641 18.5814L10.4644 24.0381C10.4644 24.0381 10.7865 23.4283 11.51 23.4283C11.6264 23.4283 11.7552 23.4443 11.894 23.4818C12.89 23.7493 13.0907 24.6961 13.0907 24.6961C15.9005 22.9307 17.5977 19.2742 19.5749 16.5378C22.2583 12.8278 24.9268 10.7253 26.3713 9.80252C26.3713 9.80252 25.7073 9.22208 25.6701 8.8262C25.5685 7.78568 26.1136 7.4112 26.1136 7.4112C24.8376 6.01759 22.7414 3.84828 21.4729 2.46003C21.4729 2.46003 21.012 2.85056 20.3851 2.85056C20.2365 2.85056 20.0779 2.82916 19.9169 2.77566C19.0051 2.47875 18.9282 1.80469 18.9282 1.80469Z" fill="#2E7D32"/>
<path id="Vector_11" d="M12.7243 6.79297L10.3135 10.7277L18.926 20.2208C18.926 20.2208 20.3334 17.8187 21.4929 16.0426L12.7243 6.79297Z" fill="#FFECB3"/>
<path id="Vector_12" opacity="0.68" d="M21.842 17.1709C21.842 17.1709 20.1423 18.1044 19.6789 20.9505C19.503 22.0258 19.6765 23.2027 19.6765 23.2027L21.0788 20.8729L22.0823 17.6336L21.842 17.1709Z" fill="#D69136"/>
<path id="Vector_13" d="M21.3536 17.7894C21.8467 17.2785 22.0102 17.1206 23.5513 17.0003C25.0726 16.8799 25.7714 16.1604 27.6941 16.591C28.5068 16.7729 29.7952 17.5754 29.4681 20.7745C29.3442 21.9942 29.374 24.8135 29.9067 27.368C30.3353 29.4223 29.1634 28.8954 28.8413 28.6092C27.6916 27.59 27.642 25.2816 27.642 25.2816C27.642 25.2816 27.533 28.7108 26.371 27.4991C25.4294 26.5147 25.9027 24.1876 25.9027 24.1876C25.9027 24.1876 25.2932 26.5629 24.2649 25.616C23.5588 24.966 24.084 22.4195 24.084 22.4195C24.084 22.4195 23.2639 24.4979 22.6544 24.1528C21.7228 23.6286 22.1638 21.486 22.1638 21.486C22.1638 21.486 21.3115 23.5162 20.7565 23.107C19.9289 22.4971 20.2287 20.5953 20.2287 20.5953C20.2287 20.5953 20.4715 18.7015 21.3536 17.7894Z" fill="#E0E0E0"/>
<path id="Vector_14" d="M28.7109 19.0863C28.7109 19.0863 28.8298 20.7394 28.7233 21.7264C28.6564 22.339 28.6267 22.9007 28.1063 22.8178C27.98 22.7964 27.6851 22.5316 27.6331 21.5124C27.5786 20.4318 27.7867 19.0034 27.6405 18.8964C27.4944 18.7868 27.4869 20.6618 26.7634 21.8361C26.4909 22.2774 26.0325 22.3256 25.9606 21.162C25.8814 19.8968 26.4884 18.3989 26.4017 18.2705C26.4017 18.2705 25.8888 18.9526 25.5915 19.9182C25.2941 20.8838 25.1628 21.3386 24.8135 21.0604C24.1866 20.5629 25.1058 18.5808 25.1058 18.5808C25.1058 18.5808 24.4319 19.2308 24.1395 20.1402C23.9537 20.718 24.0553 21.6676 24.531 21.9083C25.091 22.1919 25.418 21.6863 25.418 21.6863C25.418 21.6863 25.537 23.3046 26.2679 23.2698C26.9691 23.235 27.1475 22.3818 27.1475 22.3818C27.1475 22.3818 27.1177 23.2056 27.8264 23.77C28.1708 24.0455 28.9711 24.091 29.0702 22.9997C29.2312 21.2289 28.7109 19.0863 28.7109 19.0863ZM22.9453 18.5059C22.7941 18.4658 22.5761 19.2014 22.3035 19.616C22.1995 19.7711 21.9765 20.0894 21.6345 20.0627C21.2926 20.0359 21.5627 18.9499 21.4834 19.0088C21.4041 19.0676 21.0845 19.6481 21.2109 20.3221C21.2455 20.5094 21.4215 20.7314 21.5949 20.7608C22.2441 20.8731 22.529 20.0118 22.529 20.0118C22.529 20.0118 22.4324 21.0417 23.0741 21.1487C23.8496 21.2771 24.0082 19.9583 23.9388 19.9102C23.8695 19.862 23.6192 20.7394 23.0667 20.3649C22.6132 20.0546 23.0964 18.5487 22.9453 18.5059Z" fill="#BDBDBD"/>
<path id="Vector_15" d="M3.25684 19.8008L11.2921 29.9626C11.2921 29.9626 11.6513 29.3875 11.7331 28.4915C11.805 27.7104 11.5522 26.6726 11.5522 26.6726L3.59133 17.0029L3.25684 19.8008Z" fill="#206022"/>
</g>
<defs>
<linearGradient id="paint0_linear_3244_134006" x1="19.5647" y1="0.864567" x2="19.5647" y2="0.864567" gradientUnits="userSpaceOnUse">
<stop stop-color="#43A047"/>
<stop offset="0.999" stop-color="#66BB6A"/>
</linearGradient>
</defs>
</svg>
