<svg width="14" height="15" viewBox="0 0 14 15" fill="none" xmlns="http://www.w3.org/2000/svg">
<path id="Vector" fill-rule="evenodd" clip-rule="evenodd" d="M9.66922 2.33964V3.96102L10.7412 2.93207V1.01967L10.2052 0.5H0.557427L0.0214395 1.01967V1.5248L0 1.53935V12.2342L0.385911 12.7123L5.74579 14.5L6.43185 14.0115V12.9722H10.2052L10.7412 12.4525V10.5713L9.66922 9.53192V11.9328H6.43185V3.31663L6.0781 2.83853L2.18254 1.53935H9.66922V2.33964ZM5.35988 13.2632L1.07198 11.8705V2.28768L5.35988 3.6804V13.2632ZM12.3492 7.23497H7.02144V6.19562H12.3063L10.5911 4.53267L11.3522 3.80512L14 6.36192V7.09985L11.3308 9.67743L10.5804 8.94989L12.3492 7.23497Z" fill="#888888"/>
</svg>
