<svg width="31" height="34" viewBox="0 0 31 34" fill="none" xmlns="http://www.w3.org/2000/svg">
<path id="Vector" d="M18.9267 2.65783C18.9618 2.6136 19.0056 2.57699 19.0554 2.55021C19.1051 2.52343 19.1598 2.50705 19.2161 2.50206C19.2723 2.49707 19.329 2.50358 19.3827 2.52119C19.4364 2.5388 19.4859 2.56714 19.5283 2.6045L21.0633 3.95783L16.2317 9.9995H19.4333L22.9433 5.61283L25.6967 8.04116C25.7781 8.11311 25.8282 8.21401 25.8363 8.32235C25.8444 8.4307 25.8098 8.53792 25.74 8.62116L24.59 9.9995H27.83C28.2313 9.41196 28.4041 8.69798 28.3157 7.99197C28.2273 7.28595 27.8838 6.6366 27.35 6.16616L21.1833 0.727831C20.8858 0.465836 20.5381 0.267233 20.1613 0.144152C19.7844 0.0210704 19.3865 -0.0239063 18.9917 0.011969C18.5969 0.0478442 18.2136 0.163818 17.8651 0.352808C17.5167 0.541798 17.2104 0.799837 16.965 1.11116L9.96 9.9995H13.1433L18.9267 2.65783ZM22.0833 21.6662C21.7518 21.6662 21.4339 21.7979 21.1995 22.0323C20.965 22.2667 20.8333 22.5846 20.8333 22.9162C20.8333 23.2477 20.965 23.5656 21.1995 23.8C21.4339 24.0345 21.7518 24.1662 22.0833 24.1662H25.4167C25.7482 24.1662 26.0661 24.0345 26.3006 23.8C26.535 23.5656 26.6667 23.2477 26.6667 22.9162C26.6667 22.5846 26.535 22.2667 26.3006 22.0323C26.0661 21.7979 25.7482 21.6662 25.4167 21.6662H22.0833ZM2.5 10.4162C2.5 10.0846 2.6317 9.7667 2.86612 9.53228C3.10054 9.29786 3.41848 9.16616 3.75 9.16616H8.96333L10.95 6.66616H3.75C2.75544 6.66616 1.80161 7.06125 1.09835 7.76451C0.395088 8.46778 0 9.4216 0 10.4162V27.9162C0 29.3528 0.570683 30.7305 1.5865 31.7463C2.60233 32.7621 3.98008 33.3328 5.41667 33.3328H25.4167C26.8533 33.3328 28.231 32.7621 29.2468 31.7463C30.2627 30.7305 30.8333 29.3528 30.8333 27.9162V17.0828C30.8333 15.6462 30.2627 14.2685 29.2468 13.2527C28.231 12.2368 26.8533 11.6662 25.4167 11.6662H3.75C3.41848 11.6662 3.10054 11.5345 2.86612 11.3C2.6317 11.0656 2.5 10.7477 2.5 10.4162ZM2.5 27.9162V13.9528C2.89167 14.0912 3.31167 14.1662 3.75 14.1662H25.4167C27.0267 14.1662 28.3333 15.4728 28.3333 17.0828V27.9162C28.3333 28.6897 28.026 29.4316 27.4791 29.9786C26.9321 30.5255 26.1902 30.8328 25.4167 30.8328H5.41667C4.64312 30.8328 3.90125 30.5255 3.35427 29.9786C2.80729 29.4316 2.5 28.6897 2.5 27.9162Z" fill="#053283"/>
</svg>
